<svg xmlns="http://www.w3.org/2000/svg" width="23.7" height="35.3" viewBox="0 0 23.7 35.3"><path fill="none" d="M-24.7 426.2v-654"/><g fill="#FFF"><path d="M162.4-33.3l-.6 3.5h-2.4l3.1-16h3.4l3.2 16h-2.5l-.7-3.5h-3.5zm1.7-9.5l-1.3 7.2h2.6l-1.3-7.2zM178-29.8h-2.5v-16h3.9c1.5 0 2.4.3 3.2 1 1 .8 1.4 2 1.4 3.6 0 2-.7 3.4-2.2 4.2l2.4 7.3h-2.6l-2.1-6.6H178v6.5zm.9-8.9c1.1 0 1.5-.1 1.9-.5.4-.4.6-1.1.6-1.9 0-.9-.2-1.5-.6-1.9-.4-.4-.9-.5-1.9-.5h-.9v4.9h.9zM198.2-43.6h-4.8v4.2h3.5v2.3h-3.5v4.9h4.8v2.3H191v-16h7.2v2.3zM218.4-29.8H216V-36l-3.6-9.8h2.7l2.1 6.8 2.2-6.8h2.7l-3.7 9.8v6.2zM236.8-34.9c0 1.8-.3 2.9-.9 3.8-.7 1-1.9 1.5-3.5 1.5-1.5 0-2.7-.5-3.5-1.5-.6-.9-.9-2-.9-3.8v-5.8c0-1.8.3-2.9.9-3.8.7-1 1.9-1.5 3.5-1.5 1.5 0 2.7.5 3.5 1.5.6.9.9 2 .9 3.8v5.8zm-6.2-.1c0 1.3.1 1.7.3 2.2.3.5.9.9 1.6.9.7 0 1.3-.3 1.6-.9.3-.5.3-.9.3-2.2v-5.7c0-1.3 0-1.7-.3-2.2-.3-.5-.9-.9-1.6-.9-.7 0-1.3.3-1.6.9-.2.5-.3.9-.3 2.2v5.7zM252.4-45.8V-35c0 2-.2 3-.9 4-.7.9-1.9 1.4-3.3 1.4-1.5 0-2.6-.5-3.3-1.4-.7-.9-.9-1.9-.9-4v-10.8h2.5v11.3c0 1.9.5 2.7 1.8 2.7 1.2 0 1.8-.8 1.8-2.7v-11.3h2.3z"/></g><g fill="#FFF"><path d="M159.2 212.2h-2.4v-11.8l-2.8 11.8h-1.4l-2.8-11.8v11.8h-2.4v-16h3.6l2.2 10.1 2.2-10.1h3.6v16zM169.1 208.7l-.6 3.5H166l3.1-16h3.4l3.2 16h-2.5l-.7-3.5h-3.4zm1.7-9.5l-1.3 7.2h2.6l-1.3-7.2zM186.1 212.2h-2.5v-13.7h-3.1v-2.3h8.7v2.3h-3.1v13.7zM203 198.4h-4.8v4.2h3.5v2.3h-3.5v4.9h4.8v2.3h-7.2v-16h7.2v2.3zM211.9 212.2h-2.5v-16h3.9c1.5 0 2.4.3 3.2 1 1 .8 1.4 2 1.4 3.6 0 2-.7 3.4-2.2 4.2l2.4 7.3h-2.6l-2.1-6.6h-1.5v6.5zm1-8.9c1.1 0 1.5-.1 1.9-.5.4-.4.6-1.1.6-1.9 0-.9-.2-1.5-.6-1.9-.4-.4-.9-.5-1.9-.5h-.9v4.9h.9zM227.4 212.2h-2.5v-16h2.5v16zM237.2 208.7l-.6 3.5h-2.4l3.1-16h3.4l3.2 16h-2.5l-.7-3.5h-3.5zm1.7-9.5l-1.3 7.2h2.6l-1.3-7.2zM252.8 209.9h4.9v2.3h-7.4v-16h2.5v13.7zM265.4 207.3v-.6c0-2.4.3-3.4 1.6-5.8.5-.9.6-1.3.6-1.8 0-.6-.4-1-1.1-1-.7 0-1.2.6-1.7 1.9l-2.2-.6c.7-2.3 1.9-3.3 4-3.3 2 0 3.4 1.2 3.4 3.1 0 .9-.3 1.6-1.2 2.9-1.3 1.9-1.5 2.5-1.5 4.5v.7h-1.9zm2.2 4.9h-2.3v-2.6h2.3v2.6z"/></g><g fill="none" stroke="#4D4D4D" stroke-miterlimit="10"><path d="M22.8.7L.8 34.6M.8.7l22 33.9"/></g><path fill="none" stroke="#4D4D4D" stroke-miterlimit="10" d="M4.6 6.7H19v22H4.6z"/></svg>