<svg xmlns="http://www.w3.org/2000/svg" width="70.4" height="9.8" viewBox="0 0 70.4 9.8"><g fill-rule="evenodd" clip-rule="evenodd" fill="#FFF"><path d="M68.4 5.2c-2.6.2-4.9-.1-7.7.1 2.5.2 6.1.1 9.6.1.1.1.1.2.1.4-.1 0-.2 0-.2-.1-.1.1-.1.1-.1.3.2 0 .1.2.4.3-.2 0-.3.1-.4.2.1.1.4.1.4.3-.2.1-.2-.1-.4-.1.1.2-.1.3.2.3 0 0-.3-.1-.3 0 .3.2.3.5.4.7 0 .2-.1-.1-.4 0 .4.3 0 .4.4.6H70c.3.1-.2.5.3.6-.2.1-.3 0-.2.3-2.1-.2-5.7-.2-7.3-.3-.9 0-2.7.2-3.3 0l.1-.1c-.2 0-.4 0-.3.1-.9.1-2.1.3-3.1.1-.4.1-1.2 0-1.4.3-1.9-.1-4.2.2-6 .1-.1 0-.1.1-.1.1-.4 0-.4-.1-.8-.1.4.3-.6.1-.8.1 0-.1.2-.1.4-.1-.3-.1-1-.1-1.3 0 .3.1.6-.1.8 0-.3.2-1 .1-1.7.2h-1.4c.3-.2 1.5.1 1.9-.2h-7c.2.1.6 0 .8.1-1.1.1-2.8 0-3.5 0 0-.1 0-.1.1-.1-.9.2-1.4 0-2.6 0 0 .1.2 0 .4 0-.3.1-1.3.2-1.5 0h.6c-.6-.2-1.1 0-2 0 .1.1.5 0 .6.1-1 .1-1.8 0-2.7.2-.1-.2-.2-.3-.2-.5-.2.1-.3 0-.5-.1-.1.1-.1.2-.4.1 0-.1.1-.1.1-.2-.2 0-.2.2-.3.2-.6 0-1.2-.1-1.6 0-.1-.1 0-.1 0-.2-.2.2-.7.2-1.3.2 0-.1.1-.1.1-.1-.3 0-.5.2-.7 0-.1.1-.4.1-.6 0h-.1c-.2 0-.3-.2-.4 0-.1-.1-.2-.1-.2-.2-.5-.1-.5.2-.8.2H22c-.1 0-.1-.1-.1-.1-.4.1-.3-.1-.7-.1-.2 0-.1.3-.4.2 0-.1.1-.1.1-.2-.2 0-.2.2-.6.2.1-.1-.4-.1-.1 0-.3-.1-.7 0-1 .1 0-.1.1-.1.1-.1-.2 0-.2.1-.4.1s-.2-.1-.1-.1c-.3 0-.6 0-.6.1H18c0-.1-.1 0-.1 0-.1 0-.1 0-.1-.1-.2 0-.1.1-.3.1-.3-.1-.1-.1-.4 0V9H17c-.1 0 0 0 0 0-.2.2-.2-.1-.4 0 0 .1-.1.1-.1.2-.2 0 0-.1-.3-.2-.2 0 0 .2-.3.2 0-.1.1-.1.1-.1-.2 0-.1.2-.4.1.2-.1 0-.2-.4-.2.3.1 0 0 0 .2h-.4c0-.1.3-.1.1-.2-.3 0-.3.1-.5.2-.1 0 0-.1 0-.1-.2 0-.2.1-.3.1-.2-.2-.3.1-.7 0 0-.1.1-.1 0-.2-.3.1-.5-.1-.9 0 .2.1.1.1-.1.1-.2-.1-.8.1-.6-.1-.3 0-.4 0-.5.1 0-.1-.1 0 0 0 .1.1-.3 0-.3.1-.1 0-.2-.1-.2-.2-.2.1-.3.1-.3.2-.2 0-.2-.2-.4-.2-.3 0-.3.2-.5.2s.1-.1-.1-.1c0-.1.2 0 .2 0 0-.3-.4.1-.4-.1 0 .1-.4 0-.4.2-.1 0-.1-.1-.1-.1h-.4V9c-.3 0-.2.2-.5.2 0-.1-.1-.1 0-.2-.3 0-.3.2-.6.2 0-.1.1-.1.2-.1 0-.1-.1-.1-.1-.1-.2 0 .1.4-.2.3.1-.1-.2-.1-.5-.2-.2 0 .1.1 0 .2-.3 0-.4 0-.6-.1.1.3-.5-.2-.7.1-.3 0 0-.1-.1-.1H5h-.1c-.1 0-.1-.1-.1 0-.1 0-.1-.1-.1-.2-.2 0-.2.1-.3.2-.2.1-.2-.1-.4 0-.2 0-.1.2-.2.2h-.3c0-.1 0-.1.1-.1-.2 0-.4 0-.4-.1-.2-.1-.3 0-.2.1-.2-.2-.3 0-.9 0 .2-.1-.3-.1.1-.1 0-.1-.3 0-.5 0 .3.1-.5-.2-.4 0-.1-.1-.8 0-1.2-.1 0-.1 0-.2.1-.2.2 0 .3.1.4 0 0-.1-.3 0-.2-.1.4-.1.4-.2.4-.4-.3 0-.1-.3-.5-.2 0-.1.1-.2-.1-.3.2-.1.4-.2.3-.4.1 0 .1-.1.3 0 0-.2.1-.2-.1-.3.1-.1.3 0 .4 0 0-.1-.1 0-.1 0 .3-.1.5 0 .8 0 .2-.2.2-.4.5-.7.3 0 1-.1 1.1.1h-.7c.5.1 3.4.3 3.6.2h-.1.6c.1-.2-.2 0-.3-.1.2.1 0-.4.5-.4-2.2-.3-4.1 0-6.2-.2.3-.1-.2-.2-.4-.2v-.2c.2 0 .1-.1 0 0 0-.1 0-.1.1-.1 0-.2-.2-.1-.4-.2 0-.2.4-.1.6-.2-.1-.1-.4 0-.5-.1.1-.1.5 0 .4-.2h1c-.3 0-.6-.1-1-.1.4-.1 1.1 0 1.4.1h-.3c0 .1.2.1.3 0 .5 0 1.3.1 1.8.1-.2-.2-1.1 0-1.3-.3.5 0 .8.1 1.3.1-.2-.1-.6-.1-.8-.1.1-.2 0-.1-.1-.3-.6.1-1.1-.1-1.5 0 0-.2-.2-.2-.5-.3 0-.1.2-.3.5-.4-.2-.1-.3-.1-.5 0 0-.2-.3-.2-.3-.4.2 0 .1.1.3 0C.6 3.1.3 3.2 0 3c.1-.1.4-.2.2-.3.3 0 .4.2.5 0-.4 0 .1-.2-.4-.3 0-.1.2-.2.1-.4.2-.1.3 0 .4 0 .2 0-.2-.2-.3-.2.1-.1.3-.1.4 0 0-.1 0-.2-.1-.2-.1-.2-.4-.2-.6-.1 0-.1.1-.2.4-.2-.1-.1-.1 0-.4 0 0-.3.3-.3.6-.3C1 1 .7.9.8.8V1C.5 1 .9.6.5.6L.4.5C.4.3.7.2.9 0c.4.2.6.3 1.1.3-.1.1-.2 0-.1.1h.3C1.8 0 4.5.3 5.1.2c.2 0 .3-.1.5-.1s0 .1.2.1C6 .3 7.3.3 7.2.1c.4.1 1.2.3 1.7 0 .3 0 .4.1.4.2.1 0 .1-.1.3-.1 0 .1-.1.2.1.2.1-.1-.2-.1.1-.3.3.1.5.1.7 0 .3.3 1.2.2 1.5 0-.1.1.4.1.3 0 .4.3 1.7.2 2.3.1.1.2.5-.1.6 0 .1 0 .2.1.4.2.4.1 1.8 0 2.3-.1.3.2 1.4.2 1.7.2 0 .1.1.1.2.2.1-.5 1.3.1 1.8-.3.2.1 1.1.2 1.1 0 .2.1.5.1.8.2-.2.1-.1.1.2.1-.3-.2 1.3-.1 1.5-.1-.3 0 0 .2 0 0h.3c0 .1-.3 0-.3.1.1.1.4-.1.6 0 .1-.2-.4 0-.3-.2.5 0 1.1 0 1.6-.1.2 0-.1-.1 0-.2.2 0 .1.2.3.2.2 0 .4-.1.4-.2.2 0 .3.1.4.2.7-.2 1.6-.1 2.7-.1.1 0 .3 0 .2-.1.8.2 1.6.1 2.3.1 1 0 1.6.2 2.9-.1 1.6.3 3.4 0 4.4.2 0 .1-.4 0-.4.1.6 0 1.9-.1 2.3.3 1.3-.2 2.2 0 3.5-.2h-.2c.2-.2.4 0 .6-.1-.1-.1-.7.1-.7-.1h2.3c.1 0 .2-.1.1-.2.2 0 .1.2.3.2.3 0 .3-.1.6 0 2.9.1 6.5.1 8.8 0V.3c.5.3 1 .2 1.8.1-.2-.4-.2-.3 0-.4.4.4 1.1.1 2 .2.1 0 .1-.1.1-.1.2 0 .3 0 .4.1 2.3 0 4.4.2 6.8 0 .1 0 .1 0 .1.1.1-.1.5-.1.7 0-2.5 0-5.8.2-7.7.2.8.3 2.1.1 3 .4 1.5-.1 3.2-.1 5.1 0-.1.4.4.4.4.8-.1.1-.2-.1-.4 0 0 .4 0 .8.4 1-.2.3-.3.3-.3.5-.7 0-1.6.1-2.5 0 .1.2.5.2.8.3-.3.1-1 0-1.3.2-.1.2.2.1.1.3-.4-.1-.3.1-.6.1.1.1.2.1.3.2-.3.3-.1.6-.7.8.5 0 1.2 0 2 .1zM62.6.3h-.2.2zm.5.2c.5 0 1.1 0 1.3-.1-.4-.2-1 0-1.6-.1-.1.2.6 0 .3.2zM1.5.3c.1.1 0 0 0 0zm1.9 0h-.1.1zm.4 0h-.1.1zm.4 0H4h.2zm.2.1h.3V.3c-.1 0-.2 0-.3.1 0-.1 0 0 0 0zM6.8.3c-.1 0-.5-.1-.5 0 .2.1.4.2.5 0zm.2.1h.2V.3c-.1 0-.2 0-.2.1 0-.1 0 0 0 0zM28.9.3c.1.2.1-.1 0 0zm.9 0c0 .1 0 0 0 0zm.2.1c.2 0 .4 0 .5-.1-.2 0-.6-.1-.5.1zm1.3-.1c.1.2.1-.1 0 0zm.8 0c.1.1 0 0 0 0zm.5 0h-.4c.1.1.4.1.4 0zm1.3 0c-.1 0-.4-.1-.4 0 .1 0 .4.1.4 0zm.9 0c-.2 0-.7-.1-.8 0 .2.1.7.2.8 0zm.7.1c.1-.1-.5-.1-.5 0 .2-.1.4-.1.5 0zM37 .3c.1.1 0 0 0 0zm.6.1c.1-.1-.4-.1-.4 0h.4zm.6 0c.2 0 .2-.1.4 0 0-.2-.5-.2-.4 0zm.8-.1c.1.1 0 0 0 0zm.6 0c-.1 0-.4-.1-.4 0 .1.1.3.1.4 0zm.1 0c.1.2.1-.1 0 0zm.5 0H40c-.1.1.3 0 .2 0zm7.2 0c0 .1 0 0 0 0zm.8 0c.1.1.1 0 0 0 0-.1-.5-.1-.5 0 .2.1.4.1.5 0zm1.3 0h-.1.1zm.9 0c-.4-.1-.1.1 0 0zm.2 0h-.1.1zm1.5.1h.1V.3l-.1.1c0-.1 0 0 0 0zm.4-.1c.1.2.2-.1 0 0zm.7 0h-.1.1zm.3.1c.2 0 .3 0 .4-.1-.2 0-.5-.1-.4.1zm.7-.1h-.1.1zm.2.1c.4 0 .6.1.8-.1-.3 0-.8-.1-.8.1zm1.5-.1h.8c0-.1-1 0-.8 0zm1.1 0h-.2.2zm0 .1c.2 0 .4 0 .4-.1-.1 0-.4-.1-.4.1zm1.2-.1c.1.2.1-.1 0 0zm.3 0h-.1.1zm.5 0c.5.1.3-.1 0 0zm2 0h-.6c-.1.2.6.1.6 0zM8.6.3h-.1c0 .1.1.1.1 0zm2.3.2c.2 0 .5.1.6 0-.2-.1-.5-.2-.6 0zM64.5.4c.1 0 0 0 0 0zM3.5.5c.1.1.1-.2 0 0zm5.6 0s0-.1 0 0zm2.6 0s0-.1 0 0zm1.4-.1h-.3c.1.1.3.1.3 0zm.1.1c.1 0 0-.1 0 0zm.6 0c.2 0 .5 0 .5-.1-.2.1-.6-.1-.5.1zm2.2 0c-.4-.2-.2.1 0 0zm.1 0c.1 0 .2 0 .2-.1-.1 0-.3 0-.2.1zm.4 0s-.1-.1 0 0zm.1-.1c-.1.3.3 0 0 0zm13.5.1c.1 0 0-.1 0 0zm4.2 0h.3V.4c-.1 0-.2 0-.3.1 0-.1 0 0 0 0zm.9 0c.1.1.1-.2 0 0zm.4 0s-.1-.1-.1 0h.1zm1.4 0c-.2.1.2-.1 0 0zm2.6 0h.1V.4l-.1.1c0-.1 0 0 0 0zm.3 0c-.1 0 0 0 0 0 .1-.1 0-.1 0 0zm.6 0c-.1 0 0 0 0 0 .1-.1 0-.1 0 0zm9.9 0c.1.1.2-.2 0 0zm.4 0c.1.1.1-.2 0 0zm.8 0c0 .1 0-.2 0 0zm1.9 0h.1V.4l-.1.1c0-.1 0 0 0 0zm1 0c.1 0 0-.1 0 0zm.9 0c.1 0 0-.1 0 0zm1.2 0c.1-.1-.3-.1-.3 0h.3zm.5 0h.1V.4l-.1.1c0-.1 0 0 0 0zm.2 0c.1.1.1-.2 0 0zM1.9.5zm2.7 0s-.1 0 0 0zm2 0h-.2.2zm10.6 0H17h.2zm1.2 0c0 .1.1 0 0 0-.1-.1-.4.1 0 0zm11.3 0c.1 0 0 0 0 0zm.2 0c.1 0 0 0 0 0zm7.5 0zm.4 0c.1 0 0 0 0 0zm3.8 0s-.1 0 0 0zm8.4 0zm3 0c.1.1.1-.2 0 0zm1 0c.1 0 0 0 0 0zm4 0c.1 0 0 0 0 0zm.7 0c0 .2 0-.2 0 0zm1.8 0zm1.8 0c.1 0 0 0 0 0zm-42 0h-.1.1zm.5 0c.1.2.1-.1 0 0zm.4 0c.1.2.1-.1 0 0zM9.6.6s-.1 0 0 0zm.1 0c.1 0 0 0 0 0zm1.5-.1h-.1c0 .1.1.1.1 0zm.5.1zm7 0c.1 0 0 0 0 0zm3 0zm2.7.2c.3 0 .1-.2.2-.2h-.1-.1c.2 0-.1.1 0 .2zm3.2-.3h-.4c.2.1.4.1.4 0zM15.4.6c0 .1-.1 0 0 0zm4.3.1s-.1-.1-.1 0c.1 0 .1.1.1 0zm.4 0c.1.2.1-.1 0 0zm3.4 0h-.2c-.2.2.3 0 .2 0zm2.2 0h-.1.1zm-4 0h-.1s.1.1.1 0zm-8 3.9s-.1-.1 0 0zm.9-.1h-.3c.1.1.3.1.3 0zm-4.7.2c.1 0 .1.1 0 0-.2.1-.9 0-.7.1 2.3.1 4.8.1 7.3.2-1.2-.3-3.1.1-3.7-.4-.1.1.1.1.1.2-.1-.1-.8 0-.4-.2-.8.2-1.7-.1-2.6.1zm5.4-.1c.1-.1-.4-.1-.4 0h.4zm-2.1 0h-.1.1zm4.9.2c.2.1.4-.1.5 0-.4.2-1.4 0-1.9.2.6.1 1.2 0 1.6 0 1.5 0 3.2.2 4.4 0h-.6c-.1-.1.2-.2-.1-.2-.7.3-2.3 0-3.4 0 0-.1.2-.1.1-.2-.2 0-.5-.1-.6 0 .4.1.3.1 0 .2zm-4.5-.2h-.2c.1.1.2.1.2 0zm5.5 0H19c0 .1.1.1.1 0zm.8.1s-.1 0 0 0zm.1 0zm.8-.1h-.1c0 .1.1.1.1 0zm.5.1c.1 0 0 0 0 0zm.4 0s0-.1 0 0c.5.2 1-.1 0 0zm-7.8 0c0 .1-.1 0 0 0zm8.7 0h-.1.1zm-18.7.1c.5-.1 1.2.2 1.5 0-.4-.1-1-.1-1.5 0zm4.3 0h.6c.1-.2-.8-.1-.6 0zm14.5 0c.1.1.2-.2 0 0zm.5-.1H23c.1.1.2.1.2 0zm.6 0c-.4 0-.2.2 0 0zm-2.2.1h-.1.1zm.7 0c0 .1-.1 0 0 0zM4.5 5c.2.1.1-.2 0 0zm18.4 0c.1.2.1-.1 0 0zm27.2.1H50h.1zm1 0h-.4c.1 0 .4.1.4 0zm7.9.2c.1 0 0 0 0 0zm.2 0c.1 0 0 0 0 0zm-46.8.1c0-.1 0-.1.1-.1h-.2s0 .1.1.1zm.3-.1h-.1.1zm.3 0h-.1.1zm-.3.1s-.1 0 0 0zm-.2.1c-.2-.1-.3 0-.6 0-.1.1.5 0 .6 0zm.9 0h-.2c.1.1.2.1.2 0zm56.7.1s-.1 0 0 0zm-62.5.7s-.4-.1-.4 0c.2 0 .3.1.4 0zm.4 0c-.5 0-.2.2 0 0zm1.3.1c-.3 0-.9-.1-1.2 0h1.2zm.2.1c1.4 0 2.5.2 3.8 0-1.3 0-2.6-.2-3.8 0zm6 0c.1-.1-.4-.1-.4 0h.4zm-1.2 0c-.3 0-.7-.1-.9 0 .2 0 .7.1.9 0zm.7.1zm54.4.2c.1 0 0 0 0 0zm-.7.7c.1 0 0-.1 0 0zM60.8 9c.1.1.1-.2 0 0zM7 9.2s-.1-.1 0 0zm1.4-.1h-.1.1zm9.8.1s-.1-.1 0 0zm-15.8 0c0 .1 0 0 0 0zm21.1 0c0 .1-.1 0 0 0zm13.8.3c1 .1.3-.1 0 0zm-3.9 0c-.5-.1-.2.1 0 0zm5.1 0h-.4c.1 0 .4.1.4 0zM31.4.1s.1.1 0 0z"/><path d="M41.7.2c-.1.1-.6 0-.7.1-.2-.2.6-.2.7-.1zM44.3.2c-.3.1-.5.1-.5.3-.2-.1-.7 0-.6-.2H42c.6-.2 1.8-.2 2.3-.1zm-.6.1h-.1.1zM24.6.2c-.1.1-.4 0 0 0zM24.6.2s.1 0 0 0zM45.6.3c-.1-.1 0 0 0 0zM28.2.3h0zM66.3.7c-.3.1-.9.1-.9 0 .1-.1.6-.2.8-.1 0 0 0 .1.1.1zm-.4 0c.1 0 0 0 0 0zM.4.6C.5.6.5.6.4.6zM.4.6C.5.7.5.7.3.7.3.7.3.6.4.6zM66.3.7c.1-.1.2.2 0 0zM.8 1.6s-.1 0 0 0zM.3 2.4c0 .2-.2.1 0 0zM1.6 4.7c.2-.1.3.2 0 0zM2.3 4.7c.1.2-.4.1-.4 0 0 0 .4-.1.4 0zM10.2 4.7c.1-.1.1.2 0 0zM10.4 4.7c.1-.1.1.2 0 0zM11.1 4.8c.1-.2.1.1 0 0zM.4 4.9s.1.1 0 0zM68.4 5.2c.1-.1.3 0 .5 0-.1.1-.4.1-.5 0zM69.1 5.2h0zM.4 5.7s-.1 0 0 0zM3.9 6.6h0zM4.2 6.6c.1-.1.4.1.6 0-.1.1-.6.1-.6 0zM4.9 6.7c0-.1.2 0 .4 0-.1.1-.3 0-.4 0zM5.6 6.7c.1.1.4 0 .5.1-.1 0-.6 0-.5-.1zM5.4 6.7c-.1 0 0 .1 0 0zM.6 7.1c-.1.1-.1 0-.4 0 .1-.1.2 0 .4 0zM.7 7.3c.1-.2.1.1 0 0zM.3 9.2h0zM1 9.2c-.2.1-.5-.1 0 0zM55.4 9.2h0zM55.7 9.2c0-.1.2 0 .4 0h-.4zM56.6 9.2s.1 0 0 0zM56.8 9.2h0zM60 9.2h0zM61.8 9.2c0-.1.2 0 .3 0h-.3zM65.1 9.2h0zM65.6 9.2h0zM.8 9.3s.1 0 0 0zM1.7 9.3zM3.3 9.3c.1-.2.1.1 0 0zM4.9 9.2c.1 0 .1 0 0 0h.2c.1.2-.3.1-.2 0zM8.6 9.2c0 .1-.1.1 0 0zM12 9.3s.1 0 0 0zM12.3 9.2c0 .2-.3 0 0 0zM13 9.3c.2-.2.1.1 0 0zM16.5 9.3c.1-.2.1.1 0 0zM22.5 9.2h.1c0 .2-.3.1-.1 0zM1.5 9.3c-.1 0 0 0 0 0zM4.8 9.3c.1 0 0 0 0 0zM17.7 9.3h0zM20.1 9.3s-.1 0 0 0zM23.2 9.3zM57.3 9.3c-.1 0 0 0 0 0zM33.9 9.6h0zM41.3 9.5c.2 0 .2.1.4 0-.1.1-.5.2-.4 0zM40.8 9.6c-.2.1-.5-.1 0 0z"/></g></svg>