<svg xmlns="http://www.w3.org/2000/svg" width="330.6" height="27.5" viewBox="0 0 330.6 27.5"><path fill="none" d="M-75.4-299.5h480v654h-480z"/><linearGradient id="a" gradientUnits="userSpaceOnUse" y1="13.531" x2="329.225" y2="13.531"><stop offset="0" stop-color="gray" stop-opacity=".7"/><stop offset=".03" stop-color="#868686" stop-opacity=".717"/><stop offset=".36" stop-color="#CACACA" stop-opacity=".91"/><stop offset=".515" stop-color="#E5E5E5"/><stop offset=".53" stop-color="#E1E1E1" stop-opacity=".991"/><stop offset=".851" stop-color="#9C9C9C" stop-opacity=".792"/><stop offset="1" stop-color="gray" stop-opacity=".7"/></linearGradient><path fill="url(#a)" d="M15.2 3.9h-12v7.6h8.7v2.8H3.2v8.9h12.1v3.1H0V.8h15.2v3.1zm30.6 9L53 26.3h-3.3l-5.6-10.4-5.5 10.4h-3.2l7.2-13.1L36.1.8h3.3l4.9 9.4 5-9.4h3.2l-6.7 12.1zm44-.2l-3.9 3.9h-8.8v9.6h-3.2V.8h12l3.9 3.9v8zM77.1 3.9v9.8h7.5l2.1-2.1V6l-2.1-2.1h-7.5zm49.3 0h-12.1v7.6h8.7v2.8h-8.7v8.9h12.1v3.1h-15.3V.8h15.2v3.1zm37.7 17.2l-5.1 5.1h-11V.8h11.2l4.9 4.9v15.4zM151.2 3.9v19.2h6.8l3.1-3.1V6.9L158.2 4h-7zm38.3 22.4h-3.2V.8h3.2v25.5zm38.3-22.5h-7.1v22.5h-3.2V3.8h-7.1v-3h17.3v3zm24.1 22.5h-3.2V.8h3.2v25.5zm38.9-4.2l-4.1 4.1h-8.4l-4.1-4.1V4.7l3.9-3.9h8.8l3.9 3.9v17.4zM279.4 3.9L277.3 6v14.9l2.2 2.2h6l2.2-2.2V6l-2.1-2.1h-6.2zm49.8 22.4h-3.1L315.5 4.9v21.3h-2.8V.8h4.1l9.6 19.4V.8h2.8v25.5z"/></svg>