<svg xmlns="http://www.w3.org/2000/svg" width="232.4" height="12.6" viewBox="-199.7 234.4 232.4 12.6"><linearGradient id="a" gradientUnits="userSpaceOnUse" x1="-199.7" y1="242.1" x2="32.7" y2="242.1" gradientTransform="matrix(1 0 0 -1 0 482.8)"><stop offset="0" stop-color="gray" stop-opacity=".7"/><stop offset=".03" stop-color="#868686" stop-opacity=".717"/><stop offset=".36" stop-color="#CACACA" stop-opacity=".91"/><stop offset=".515" stop-color="#E5E5E5"/><stop offset=".53" stop-color="#E1E1E1" stop-opacity=".991"/><stop offset=".851" stop-color="#9C9C9C" stop-opacity=".792"/><stop offset="1" stop-color="gray" stop-opacity=".7"/></linearGradient><path fill="url(#a)" d="M-191.2 235.9h-3.5V247h-1.6v-11.1h-3.4v-1.5h8.5v1.5zm18 11.1h-1.6v-6h-4.8v6h-1.4v-12.6h1.5v5.3h4.8v-5.3h1.6V247h-.1zm18.5-11.1h-6v3.7h4.3v1.4h-4.3v4.4h6v1.5h-7.5v-12.5h7.5v1.5zm32.5 0h-6v3.7h4.3v1.4h-4.3v4.4h6v1.5h-7.5v-12.5h7.5v1.5zm15.1 4.5l3.6 6.6h-1.6l-2.7-5.1-2.7 5.1h-1.6l3.6-6.5-3.4-6.1h1.6l2.4 4.6 2.5-4.6h1.6l-3.3 6zm21.7-.1l-1.9 1.9h-4.3v4.8h-1.6v-12.6h5.9l1.9 1.9v4zm-6.2-4.4v4.8h3.7l1-1V237l-1-1h-3.7v-.1zm24.3 0h-6v3.7h4.3v1.4h-4.3v4.4h6v1.5h-7.5v-12.5h7.5v1.5zm18.6 8.5l-2.5 2.5h-5.4v-12.5h5.5l2.4 2.4v7.6zm-6.4-8.5v9.5h3.3l1.5-1.5v-6.5l-1.4-1.5h-3.4zm18.9 11.1h-1.6v-12.6h1.6V247zm18.9-11.1h-3.5V247h-1.6v-11.1h-3.5v-1.5h8.5v1.5h.1zM-5.4 247H-7v-12.6h1.6V247zm19.2-2.1l-2 2H7.7l-2-2v-8.6l1.9-1.9h4.3l1.9 1.9v8.6zm-5.7-9l-1 1v7.4l1.1 1.1h2.9l1.1-1.1V237l-1-1H8.1v-.1zM32.7 247h-1.5L26 236.4v10.5h-1.4v-12.5h2l4.7 9.6v-9.6h1.4V247z"/></svg>